<?xml version="1.0" standalone="no"?>
<!DOCTYPE svg PUBLIC "-//W3C//DTD SVG 1.1//EN" "http://www.w3.org/Graphics/SVG/1.1/DTD/svg11.dtd" >
<svg>
<metadata>
Created by FontForge 20090914 at Wed Oct 14 21:54:44 2015
 By www-data
Copyright 1988-93,  Bear Rock Technologies Corp.
</metadata>
<defs>
<font id="C39HrP24DhTt" horiz-adv-x="320" >
  <font-face 
    font-family="C39HrP24DhTt"
    font-weight="400"
    font-stretch="normal"
    units-per-em="1000"
    panose-1="0 0 0 0 0 0 0 0 0 0"
    ascent="800"
    descent="-200"
    x-height="800"
    cap-height="800"
    bbox="0 -200 750 800"
    underline-thickness="20"
    underline-position="-123"
    unicode-range="U+0020-U+00A0"
  />
<missing-glyph horiz-adv-x="800" 
d="M50 0v800h700v-800h-700zM700 50v700h-600v-700h600z" />
    <glyph glyph-name=".notdef" horiz-adv-x="800" 
d="M50 0v800h700v-800h-700zM700 50v700h-600v-700h600z" />
    <glyph glyph-name="space" unicode=" " 
 />
    <glyph glyph-name="exclam" unicode="!" 
d="M8 50h-8v750h8v-750zM88 50h-8v750h8v-750zM200 800h48v-750h-48v750zM120 800h48v-750h-48v750zM288 50h-8v750h8v-750z" />
    <glyph glyph-name="dollar" unicode="$" 
d="M8 50h-8v750h8v-750zM88 50h-8v750h8v-750zM288 50h-8v750h8v-750zM168 50h-8v750h8v-750zM248 50h-8v750h8v-750zM154 -23l0.000976562 -12.001c10 -1.33301 19.833 -5 29.5 -11s14.5 -14 14.5 -24v-4h-24c0 6.66699 -1.66699 11 -5 13s-8.33301 3 -15 3v-41
c15.333 -5.33301 26.333 -10.333 33 -15c10.667 -7.33301 16 -17.333 16 -30c0 -12 -4.83301 -21.667 -14.5 -29s-21.167 -11.666 -34.5 -12.999v-12h-19v12h-5c-10.667 0 -20.667 3.16699 -30 9.5s-14 14.833 -14 25.5v4h25c0 -10.667 6.66699 -16 20 -16h4v46
c-14.667 4.66699 -25.334 9.33398 -32.001 14.001c-11.333 7.33301 -17 17 -17 29c0 13.333 4.66699 23.166 14 29.499s21 9.5 35 9.5v12h19zM154.001 -124.001l0.000976562 -39c16 0 24 6 24 18c0 6 -2.33301 10.5 -7 13.5s-10.334 5.5 -17.001 7.5zM135.002 -94.001
l0.000976562 36c-10 0 -16.5 -1.16699 -19.5 -3.5s-4.5 -6.5 -4.5 -12.5c0 -4.66699 1.16699 -8.16699 3.5 -10.5s9.16602 -5.5 20.499 -9.5z" />
    <glyph glyph-name="percent" unicode="%" 
d="M8 50h-8v750h8v-750zM48 50h-8v750h8v-750zM288 50h-8v750h8v-750zM128 50h-8v750h8v-750zM208 50h-8v750h8v-750zM118 -20c17.333 0 26 -9.66699 26 -29c0 -8 -2.5 -14.833 -7.5 -20.5s-11.167 -8.5 -18.5 -8.5c-8.66699 0 -15.334 2.66699 -20.001 8s-7 12.333 -7 21
s2.33301 15.667 7 21s11.334 8 20.001 8zM186 -23h12v-14l-93 -161h-13v13zM173 -142c18 0 27.001 -10 27.001 -30c0 -8 -2.33301 -14.667 -7 -20s-11.334 -8 -20.001 -8c-18 0 -27 9.33301 -27 28c0 20 9 30 27 30zM118.001 -34c-7.33301 0 -11 -5 -11 -15
s3.66699 -15 11 -15c6.66699 0 10 5 10 15s-3.33301 15 -10 15zM173.001 -156c-6.66699 0 -10 -5.33301 -10 -16c0 -9.33301 3.33301 -14 10 -14c5.33301 0 8.33301 1.83301 9 5.5s1 6.5 1 8.5c0 10.667 -3.33301 16 -10 16z" />
    <glyph glyph-name="asterisk" unicode="*" 
d="M8 50h-8v750h8v-750zM88 50h-8v750h8v-750zM200 800h48v-750h-48v750zM120 800h48v-750h-48v750zM288 50h-8v750h8v-750zM154 -93l40 16l10 -25l-42 -12l29 -34l-22 -14l-23 37l-26 -37l-19 14l27 34l-41 13l9 24l39 -16l-2 45h24z" />
    <glyph glyph-name="plus" unicode="+" 
d="M8 50h-8v750h8v-750zM88 50h-8v750h8v-750zM288 50h-8v750h8v-750zM128 50h-8v750h8v-750zM208 50h-8v750h8v-750zM132 -94v44h25v-44h48v-25h-48v-51h-25v51h-48v25h48z" />
    <glyph glyph-name="hyphen" unicode="-" 
d="M240 799h48v-750h-48v750zM88 50h-8v750h8v-750zM8 50h-8v750h8v-750zM128 48h-8v750h8v-750zM160 800h48v-750h-48v750zM84 -120v25h121v-25h-121z" />
    <glyph glyph-name="period" unicode="." 
d="M0 800h48v-750h-48v750zM128 50h-8v750h8v-750zM168 50h-8v750h8v-750zM288 50h-8v750h8v-750zM200 800h48v-750h-48v750zM122 -161h46v-37h-46v37z" />
    <glyph glyph-name="slash" unicode="/" 
d="M8 50h-8v750h8v-750zM88 50h-8v750h8v-750zM288 50h-8v750h8v-750zM168 50h-8v750h8v-750zM208 50h-8v750h8v-750zM168 -20h25l-73 -178h-24z" />
    <glyph glyph-name="zero" unicode="0" 
d="M200 800h48v-750h-48v750zM48 50h-8v750h8v-750zM8 50h-8v750h8v-750zM288 50h-8v750h8v-750zM120 800h48v-750h-48v750zM145 -18c14 0 25.002 -1.66406 33.002 -4.99707s13.667 -9.5 17 -18.5s5.66602 -19.833 6.99902 -32.5s2 -23.334 2 -32.001
c0 -24.667 -1.33301 -43 -4 -55s-7.33398 -21 -14.001 -27c-4 -4 -11.333 -6.66699 -22 -8s-17 -2 -19 -2c-8 0 -15.833 0.833008 -23.5 2.5s-13.5 4.16699 -17.5 7.5c-6.66699 6.66699 -11.167 18.167 -13.5 34.5s-3.5 32.166 -3.5 47.499c0 14 0.333008 25.167 1 33.5
s2.83398 17.666 6.50098 27.999s9.66699 17.333 18 21s19.166 5.5 32.499 5.5zM145.002 -40.9971c-11.333 0 -18.833 -0.833984 -22.5 -2.50098s-6.5 -7.16699 -8.5 -16.5c-0.666992 -7.33301 -1.16699 -14.166 -1.5 -20.499s-0.5 -11.833 -0.5 -16.5v-11
c0 -20.667 0.5 -35.167 1.5 -43.5s2.83301 -14 5.5 -17s6.16699 -5 10.5 -6s9.5 -1.5 15.5 -1.5c14 0 22.667 2.16699 26 6.5s5.5 12.5 6.5 24.5s1.5 24.333 1.5 37v11c0 14.667 -0.833008 26.667 -2.5 36s-4.66699 15 -9 17s-11.833 3 -22.5 3z" />
    <glyph glyph-name="one" unicode="1" 
d="M0 800h48v-750h-48v750zM88 50h-8v750h8v-750zM168 50h-8v750h8v-750zM208 50h-8v750h8v-750zM240 800h48v-750h-48v750zM153 -51l-45 -39v31l43 36h26v-175h-24v147z" />
    <glyph glyph-name="two" unicode="2" 
d="M40 800h48v-750h-48v750zM8 50h-8v750h8v-750zM168 50h-8v750h8v-750zM208 50h-8v750h8v-750zM240 800h48v-750h-48v750zM195 -175l-0.00195312 -22.999h-103v13c0 20 3.33301 35.167 10 45.5s19.334 21.5 38.001 33.5c12.667 8.66699 19.667 13.667 21 15
c8 7.33301 12 14.666 12 21.999c0 6.66699 -2.66699 12.667 -8 18s-11.666 8 -18.999 8c-8.66699 0 -17.167 -1.5 -25.5 -4.5s-16.833 -7.5 -25.5 -13.5v26c13.333 10 29 15 47 15c15.333 0 28.5 -4.16699 39.5 -12.5s16.5 -20.166 16.5 -35.499c0 -14 -5 -26 -15 -36
c-4 -4 -14.667 -11.667 -32 -23c-10 -6.66699 -17.667 -13 -23 -19c-8 -8.66699 -12 -17.334 -12 -26.001z" />
    <glyph glyph-name="three" unicode="3" 
d="M80 800h48v-750h-48v750zM288 50h-8v750h8v-750zM208 50h-8v750h8v-750zM248 50h-8v750h8v-750zM0 800h48v-750h-48v750zM193 -21l0.000976562 -25l-44 -44c15.333 0 27.666 -4.66699 36.999 -14s14 -22 14 -38c0 -18 -6.66699 -31.833 -20 -41.5
s-29.333 -14.5 -48 -14.5c-13.333 0 -28.333 3.33301 -45 10v25c13.333 -8.66699 28.333 -13 45 -13c12 0 22.167 2.83301 30.5 8.5s12.5 14.5 12.5 26.5c0 10.667 -3.66699 18.667 -11 24s-17 8 -29 8h-19v19l45 46h-74v23h106z" />
    <glyph glyph-name="four" unicode="4" 
d="M240 799h48v-750h-48v750zM48 50h-8v750h8v-750zM8 50h-8v750h8v-750zM208 48h-8v750h8v-750zM120 800h48v-750h-48v750zM178 -137h22v-23h-22v-38h-25v38h-66v26l52 111h25l-53 -114h42v36h25v-36z" />
    <glyph glyph-name="five" unicode="5" 
d="M0 800h48v-750h-48v750zM88 50h-8v750h8v-750zM248 50h-8v750h8v-750zM288 50h-8v750h8v-750zM160 800h48v-750h-48v750zM123 -44l-2.99902 -33.999h6c20 0 36.333 -4.5 49 -13.5s19 -23.167 19 -42.5c0 -20 -7.83301 -35.667 -23.5 -47s-37.834 -17 -66.501 -17h-8v22
h14c16 0 30 3.33301 42 10s18 17.667 18 33c0 13.333 -4.5 22.166 -13.5 26.499s-19.167 6.5 -30.5 6.5l-30 -2l5 81h89v-23h-67z" />
    <glyph glyph-name="six" unicode="6" 
d="M40 800h48v-750h-48v750zM8 50h-8v750h8v-750zM248 50h-8v750h8v-750zM288 50h-8v750h8v-750zM160 800h48v-750h-48v750zM154 -21l31 -0.000976562l-18 -18c-10 -10.667 -19.333 -22 -28 -34l-12 -15c6 2.66699 13.333 4 22 4c16 0 29 -5.66699 39 -17
s15 -24.666 15 -39.999c0 -18 -5.33301 -32 -16 -42s-24.667 -15 -42 -15c-39.333 0 -59 19.667 -59 59c0 26 8 48.333 24 67zM144 -106.001c-10 0 -18 -3.33301 -24 -10s-9 -14.667 -9 -24c0 -24 11 -36 33 -36c22.667 0 34 11.667 34 35s-11.333 35 -34 35z" />
    <glyph glyph-name="seven" unicode="7" 
d="M240 799h48v-750h-48v750zM48 50h-8v750h8v-750zM8 50h-8v750h8v-750zM128 48h-8v750h8v-750zM160 800h48v-750h-48v750zM178 -46l-85 0.000976562v23h115c0 -14 -1.66699 -24.5 -5 -31.5s-9.33301 -14.833 -18 -23.5c-14 -17.333 -24 -31.333 -30 -42
c-8 -15.333 -12 -32 -12 -50v-28h-25v28c0 18 4 35.667 12 53c6 13.333 16 28.333 30 45l9 10c6 7.33301 9 12.666 9 15.999z" />
    <glyph glyph-name="eight" unicode="8" 
d="M0 800h48v-750h-48v750zM88 50h-8v750h8v-750zM168 50h-8v750h8v-750zM288 50h-8v750h8v-750zM200 800h48v-750h-48v750zM144 -18c13.333 0 25.333 -3.16309 36 -9.49609s16 -16.166 16 -29.499c0 -9.33301 -2.5 -16.833 -7.5 -22.5s-12.5 -11.834 -22.5 -18.501
c12.667 -6 22 -13 28 -21s9 -18.333 9 -31c0 -16.667 -5.33301 -28.834 -16 -36.501s-25 -11.5 -43 -11.5s-32.167 3.66699 -42.5 11s-15.5 19.666 -15.5 36.999c0 12 3.33301 22.167 10 30.5s15.667 15.5 27 21.5c-10.667 6.66699 -17.667 12 -21 16
c-6 7.33301 -9 15.666 -9 24.999c0 13.333 5 23.166 15 29.499s22 9.5 36 9.5zM144 -175.996c9.33301 0 17.334 2.33203 24.001 6.99902s10 11.667 10 21c0 8.66699 -3.33301 16 -10 22c-4 3.33301 -12 8.33301 -24 15c-10.667 -5.33301 -16.667 -8.66602 -18 -9.99902
c-10 -7.33301 -15 -16.333 -15 -27c0 -8.66699 3.16699 -15.5 9.5 -20.5s14.166 -7.5 23.499 -7.5zM144.001 -40.9971c-17.333 0 -25.999 -5.99902 -25.999 -17.999c0 -6 2.66699 -11.333 8 -16s11.333 -8.33398 18 -11.001c7.33301 2.66699 13 5.66699 17 9
c6.66699 5.33301 10 11.333 10 18c0 6 -2.83301 10.5 -8.5 13.5s-11.834 4.5 -18.501 4.5z" />
    <glyph glyph-name="nine" unicode="9" 
d="M40 800h48v-750h-48v750zM8 50h-8v750h8v-750zM168 50h-8v750h8v-750zM288 50h-8v750h8v-750zM200 800h48v-750h-48v750zM135 -198h-33.001l31 32c12 13.333 21.333 25 28 35l-1 1c-5.33301 -3.33301 -12 -5 -20 -5c-16 0 -29.167 5.5 -39.5 16.5
s-15.5 24.167 -15.5 39.5c0 18 5.33301 32.333 16 43s25.334 16 44.001 16c38.667 0 58 -20.667 58 -62c0 -19.333 -7.33301 -40 -22 -62c-8 -11.333 -23.333 -29.333 -46 -54zM144.999 -43c-23.333 0 -35 -11.667 -35 -35c0 -10 3.16699 -18.167 9.5 -24.5
s14.833 -9.5 25.5 -9.5c22 0 33 11.333 33 34c0 23.333 -11 35 -33 35z" />
    <glyph glyph-name="A" unicode="A" 
d="M0 800h48v-750h-48v750zM88 50h-8v750h8v-750zM128 50h-8v750h8v-750zM208 50h-8v750h8v-750zM240 800h48v-750h-48v750zM168 -151h-47l-12 -47h-25l45 163h31l44 -163h-25zM162 -129l-17 71l-19 -71h36z" />
    <glyph glyph-name="B" unicode="B" 
d="M40 800h48v-750h-48v750zM8 50h-8v750h8v-750zM128 50h-8v750h8v-750zM208 50h-8v750h8v-750zM240 800h48v-750h-48v750zM152 -198l-62.998 -0.000976562v163h53c17.333 0 31.833 -3.66699 43.5 -11s17.5 -19.333 17.5 -36c0 -15.333 -7 -25.666 -21 -30.999
c7.33301 -2 13.166 -6.5 17.499 -13.5s6.5 -14.833 6.5 -23.5c0 -14 -4.33301 -25.5 -13 -34.5s-22.334 -13.5 -41.001 -13.5zM114.002 -122.001v-53h34c10.667 0 19 1.66699 25 5s9 10 9 20s-3.5 17.167 -10.5 21.5s-15.5 6.5 -25.5 6.5h-32zM114.002 -58.001v-43.999h33
c12.667 0 21 1.66699 25 5s6 8.66602 6 15.999c0 9.33301 -3.16699 15.5 -9.5 18.5s-14.833 4.5 -25.5 4.5h-29z" />
    <glyph glyph-name="C" unicode="C" 
d="M80 800h48v-750h-48v750zM288 50h-8v750h8v-750zM168 50h-8v750h8v-750zM248 50h-8v750h8v-750zM0 800h48v-750h-48v750zM190 -70l-24 0.000976562c-1.33301 10.667 -8.33301 16 -21 16c-11.333 0 -19.166 -6.33301 -23.499 -19s-6.5 -26.334 -6.5 -41.001
s2.16699 -28.667 6.5 -42s12.166 -20 23.499 -20c12.667 0 19.667 6 21 18h24c0 -12 -4.33301 -21.667 -13 -29s-19 -11 -31 -11c-19.333 0 -33.5 8.5 -42.5 25.5s-13.5 36.167 -13.5 57.5c0 23.333 4.16699 43.166 12.5 59.499s22.833 24.5 43.5 24.5
c12 0 22.333 -3.66699 31 -11s13 -16.666 13 -27.999z" />
    <glyph glyph-name="D" unicode="D" 
d="M240 799h48v-750h-48v750zM48 50h-8v750h8v-750zM8 50h-8v750h8v-750zM208 48h-8v750h8v-750zM80 800h48v-750h-48v750zM95 -198v163h15c24 0 44.167 -8.16699 60.5 -24.5s24.5 -36.5 24.5 -60.5s-7.66699 -43 -23 -57s-35 -21 -59 -21h-18zM119 -58l-0.000976562 -117
c16 0 28.5 5.16699 37.5 15.5s13.5 23.5 13.5 39.5s-4.66699 30.333 -14 43s-21.666 19 -36.999 19z" />
    <glyph glyph-name="E" unicode="E" 
d="M0 800h48v-750h-48v750zM88 50h-8v750h8v-750zM248 50h-8v750h8v-750zM288 50h-8v750h8v-750zM120 800h48v-750h-48v750zM118 -58v-44h63v-22h-63v-51h75v-23h-100v163h98v-23h-73z" />
    <glyph glyph-name="F" unicode="F" 
d="M40 800h48v-750h-48v750zM8 50h-8v750h8v-750zM248 50h-8v750h8v-750zM288 50h-8v750h8v-750zM120 800h48v-750h-48v750zM126 -58v-44h49v-22h-49v-74h-25v163h85v-23h-60z" />
    <glyph glyph-name="G" unicode="G" 
d="M240 799h48v-750h-48v750zM48 50h-8v750h8v-750zM8 50h-8v750h8v-750zM88 48h-8v750h8v-750zM160 800h48v-750h-48v750zM175 -131h-33.001v22h58v-79c-15.333 -6.66699 -31 -10 -47 -10c-22.667 0 -38.834 7.83301 -48.501 23.5s-14.5 35.834 -14.5 60.501
c0 25.333 4.83301 45.5 14.5 60.5s26.834 22.5 51.501 22.5c12 0 22.333 -3.33301 31 -10s13 -14.334 13 -23.001l-25 -2c-1.33301 8 -7.66602 12 -18.999 12c-16 0 -26.833 -5.33301 -32.5 -16s-8.5 -24.667 -8.5 -42c0 -19.333 2.5 -34.833 7.5 -46.5
s15.833 -17.5 32.5 -17.5c3.33301 0 7 0.5 11 1.5s7 1.83301 9 2.5v41z" />
    <glyph glyph-name="H" unicode="H" 
d="M0 800h48v-750h-48v750zM88 50h-8v750h8v-750zM128 50h-8v750h8v-750zM288 50h-8v750h8v-750zM200 800h48v-750h-48v750zM173 -125h-55v-73h-24v163h24v-67h55v67h24v-163h-24v73z" />
    <glyph glyph-name="I" unicode="I" 
d="M40 800h48v-750h-48v750zM8 50h-8v750h8v-750zM128 50h-8v750h8v-750zM288 50h-8v750h8v-750zM200 800h48v-750h-48v750zM156 -58v-117h29v-23h-83v23h29v117h-25v23h74v-23h-24z" />
    <glyph glyph-name="J" unicode="J" 
d="M200 800h48v-750h-48v750zM48 50h-8v750h8v-750zM8 50h-8v750h8v-750zM288 50h-8v750h8v-750zM80 800h48v-750h-48v750zM161 -33h25v-118c0 -31.333 -14 -47 -42 -47s-42 13.667 -42 41v14h25v-15c0 -12 5.66699 -18 17 -18c8 0 12.833 2.5 14.5 7.5s2.5 12.167 2.5 21.5
v114z" />
    <glyph glyph-name="K" unicode="K" 
d="M0 800h48v-750h-48v750zM88 50h-8v750h8v-750zM128 50h-8v750h8v-750zM168 50h-8v750h8v-750zM240 800h48v-750h-48v750zM116 -102l66 67h32l-79 -78l84 -85h-34l-69 73v-73h-25v163h25v-67z" />
    <glyph glyph-name="L" unicode="L" 
d="M40 800h48v-750h-48v750zM8 50h-8v750h8v-750zM128 50h-8v750h8v-750zM168 50h-8v750h8v-750zM240 800h48v-750h-48v750zM122 -175h84v-23h-108v163h24v-140z" />
    <glyph glyph-name="M" unicode="M" 
d="M80 800h48v-750h-48v750zM288 50h-8v750h8v-750zM168 50h-8v750h8v-750zM208 50h-8v750h8v-750zM0 800h48v-750h-48v750zM164 -35h38v-163h-25v136l-23 -83h-19l-23 83v-136h-25v163h38l19 -63z" />
    <glyph glyph-name="N" unicode="N" 
d="M240 799h48v-750h-48v750zM48 50h-8v750h8v-750zM8 50h-8v750h8v-750zM168 48h-8v750h8v-750zM80 800h48v-750h-48v750zM177 -35h22v-163h-26l-59 123v-123h-23v163h29l56 -118z" />
    <glyph glyph-name="O" unicode="O" 
d="M0 800h48v-750h-48v750zM88 50h-8v750h8v-750zM208 50h-8v750h8v-750zM288 50h-8v750h8v-750zM120 800h48v-750h-48v750zM144 -31c19.333 0 34.333 -9.66797 45 -29.001c8.66699 -15.333 13 -33.333 13 -54c0 -21.333 -4.33301 -39.666 -13 -54.999
c-10.667 -19.333 -25.667 -29 -45 -29c-18.667 0 -32.834 8.5 -42.501 25.5s-14.5 36.5 -14.5 58.5c0 19.333 4.83301 38 14.5 56s23.834 27 42.501 27zM144 -54.001c-9.33301 0 -17.001 -5.00195 -23.001 -15.002s-9 -25.667 -9 -47c0 -15.333 2.16699 -29.166 6.5 -41.499
s12.833 -18.5 25.5 -18.5c12 0 21 7.33301 27 22c4 10.667 6 23.334 6 38.001c0 16.667 -1.66699 29.667 -5 39c-5.33301 15.333 -14.666 23 -27.999 23z" />
    <glyph glyph-name="P" unicode="P" 
d="M40 800h48v-750h-48v750zM8 50h-8v750h8v-750zM208 50h-8v750h8v-750zM288 50h-8v750h8v-750zM120 800h48v-750h-48v750zM90 -198l0.000976562 163h55c17.333 0 31 -4 41 -12s15 -20.333 15 -37c0 -16 -5.33301 -27.833 -16 -35.5s-24.334 -11.5 -41.001 -11.5h-29v-67
h-25zM115.001 -108h29c9.33301 0 17 1.83301 23 5.5s9 10.167 9 19.5s-2.83301 15.833 -8.5 19.5s-13.5 5.5 -23.5 5.5h-29v-50z" />
    <glyph glyph-name="Q" unicode="Q" 
d="M240 799h48v-750h-48v750zM48 50h-8v750h8v-750zM8 50h-8v750h8v-750zM88 48h-8v750h8v-750zM120 800h48v-750h-48v750zM187 -198l-13.999 17.999c-8.66699 -6.66699 -18.334 -10 -29.001 -10c-18.667 0 -32.5 7.66699 -41.5 23s-13.5 33.333 -13.5 54
c0 21.333 4.16699 40 12.5 56s22.5 24 42.5 24c19.333 0 33.333 -8.33301 42 -25s13 -35 13 -55c0 -12.667 -0.5 -22.167 -1.5 -28.5s-4.16699 -13.166 -9.5 -20.499l29 -36h-30zM159.001 -162.001l-32.999 43h29l17 -21c1.33301 6 2 16 2 30
c0 15.333 -1.33301 26.666 -4 33.999c-4.66699 13.333 -13.334 20 -26.001 20c-9.33301 0 -16.666 -4.16699 -21.999 -12.5s-8 -22.166 -8 -41.499c0 -14 2.16699 -27 6.5 -39s12.166 -18 23.499 -18c6.66699 0 11.667 1.66699 15 5z" />
    <glyph glyph-name="R" unicode="R" 
d="M0 800h48v-750h-48v750zM88 50h-8v750h8v-750zM128 50h-8v750h8v-750zM288 50h-8v750h8v-750zM160 800h48v-750h-48v750zM118 -131v-67h-24v163h47c35.333 0 53 -16 53 -48c0 -24.667 -11 -39 -33 -43l43 -72h-29l-37 67h-20zM118 -108h18.999c21.333 0 32 8.66699 32 26
c0 10 -2.66699 16.5 -8 19.5s-13.666 4.5 -24.999 4.5h-18v-50z" />
    <glyph glyph-name="S" unicode="S" 
d="M40 800h48v-750h-48v750zM8 50h-8v750h8v-750zM128 50h-8v750h8v-750zM288 50h-8v750h8v-750zM160 800h48v-750h-48v750zM144 -198c-12.667 0 -24.334 3.83105 -35.001 11.498s-16 17.834 -16 30.501v5h25c0 -16.667 8.66699 -25 26 -25c18 0 27 7.66699 27 23
c0 8 -3 14.167 -9 18.5s-15.167 9.33301 -27.5 15s-20.833 10.834 -25.5 15.501c-8 8 -12 17.333 -12 28c0 13.333 4.83301 24.166 14.5 32.499s21.5 12.5 35.5 12.5c12 0 22.833 -3.83301 32.5 -11.5s14.5 -17.167 14.5 -28.5l-25 -3c0 13.333 -7.33301 20 -22 20
c-7.33301 0 -13.333 -1.5 -18 -4.5s-7 -8.16699 -7 -15.5c0 -6 1.5 -10.5 4.5 -13.5s7.5 -5.83301 13.5 -8.5l15 -7c14.667 -7.33301 24.334 -13.333 29.001 -18c8 -8 12 -18.667 12 -32s-5.16699 -24.166 -15.5 -32.499s-22.5 -12.5 -36.5 -12.5z" />
    <glyph glyph-name="T" unicode="T" 
d="M160 800h48v-750h-48v750zM48 50h-8v750h8v-750zM8 50h-8v750h8v-750zM288 50h-8v750h8v-750zM80 800h48v-750h-48v750zM157 -58v-140h-25v140h-44v23h113v-23h-44z" />
    <glyph glyph-name="U" unicode="U" 
d="M0 800h48v-750h-48v750zM128 50h-8v750h8v-750zM168 50h-8v750h8v-750zM208 50h-8v750h8v-750zM240 800h48v-750h-48v750zM89 -33l25 -0.000976562v-107c0 -24 10 -36 30 -36c12 0 20.167 2.83301 24.5 8.5s6.5 14.834 6.5 27.501v107h24v-109
c0 -37.333 -18.333 -56 -55 -56s-55 18.667 -55 56v109z" />
    <glyph glyph-name="V" unicode="V" 
d="M80 800h48v-750h-48v750zM8 50h-8v750h8v-750zM168 50h-8v750h8v-750zM208 50h-8v750h8v-750zM240 800h48v-750h-48v750zM181 -35h25l-45 -163h-34l-44 163h25l36 -139z" />
    <glyph glyph-name="W" unicode="W" 
d="M120 800h48v-750h-48v750zM288 50h-8v750h8v-750zM208 50h-8v750h8v-750zM248 50h-8v750h8v-750zM0 800h48v-750h-48v750zM135 -98h19l16 -58c5.33301 39.333 8 75 8 107v14h25v-14c0 -13.333 -0.333008 -26.666 -1 -39.999s-2 -26 -4 -38l-13 -71h-26l-14 57l-15 -57
h-27l-12 71c-1.33301 10 -2.5 21.667 -3.5 35s-1.5 27.666 -1.5 42.999v14h24v-14c0 -32 2.66699 -67.667 8 -107z" />
    <glyph glyph-name="X" unicode="X" 
d="M240 799h48v-750h-48v750zM88 50h-8v750h8v-750zM8 50h-8v750h8v-750zM208 48h-8v750h8v-750zM120 800h48v-750h-48v750zM145 -92l30 57h29l-43 -79l43 -84h-29l-30 62l-30 -62h-28l45 84l-45 79h28z" />
    <glyph glyph-name="Y" unicode="Y" 
d="M0 800h48v-750h-48v750zM128 50h-8v750h8v-750zM248 50h-8v750h8v-750zM288 50h-8v750h8v-750zM160 800h48v-750h-48v750zM144 -96l32 61h27l-46 -87v-76h-25v76l-46 87h27z" />
    <glyph glyph-name="Z" unicode="Z" 
d="M80 800h48v-750h-48v750zM8 50h-8v750h8v-750zM248 50h-8v750h8v-750zM288 50h-8v750h8v-750zM160 800h48v-750h-48v750zM126 -175h69v-23h-98v17l64 123h-62v23h88v-19z" />
    <glyph glyph-name="asciicircum" unicode="^" horiz-adv-x="550" 
d="M0 0v795v-795z" />
    <glyph glyph-name="underscore" unicode="_" 
d="M80 800h48v-750h-48v750zM8 50h-8v750h8v-750zM168 50h-8v750h8v-750zM288 50h-8v750h8v-750zM200 800h48v-750h-48v750z" />
    <glyph glyph-name="a" unicode="a" 
d="M0 800h48v-750h-48v750zM88 50h-8v750h8v-750zM128 50h-8v750h8v-750zM208 50h-8v750h8v-750zM240 800h48v-750h-48v750zM168 -151h-47l-12 -47h-25l45 163h31l44 -163h-25zM162 -129l-17 71l-19 -71h36z" />
    <glyph glyph-name="b" unicode="b" 
d="M40 800h48v-750h-48v750zM8 50h-8v750h8v-750zM128 50h-8v750h8v-750zM208 50h-8v750h8v-750zM240 800h48v-750h-48v750zM152 -198l-62.998 -0.000976562v163h53c17.333 0 31.833 -3.66699 43.5 -11s17.5 -19.333 17.5 -36c0 -15.333 -7 -25.666 -21 -30.999
c7.33301 -2 13.166 -6.5 17.499 -13.5s6.5 -14.833 6.5 -23.5c0 -14 -4.33301 -25.5 -13 -34.5s-22.334 -13.5 -41.001 -13.5zM114.002 -122.001v-53h34c10.667 0 19 1.66699 25 5s9 10 9 20s-3.5 17.167 -10.5 21.5s-15.5 6.5 -25.5 6.5h-32zM114.002 -58.001v-43.999h33
c12.667 0 21 1.66699 25 5s6 8.66602 6 15.999c0 9.33301 -3.16699 15.5 -9.5 18.5s-14.833 4.5 -25.5 4.5h-29z" />
    <glyph glyph-name="c" unicode="c" 
d="M80 800h48v-750h-48v750zM288 50h-8v750h8v-750zM168 50h-8v750h8v-750zM248 50h-8v750h8v-750zM0 800h48v-750h-48v750zM190 -70l-24 0.000976562c-1.33301 10.667 -8.33301 16 -21 16c-11.333 0 -19.166 -6.33301 -23.499 -19s-6.5 -26.334 -6.5 -41.001
s2.16699 -28.667 6.5 -42s12.166 -20 23.499 -20c12.667 0 19.667 6 21 18h24c0 -12 -4.33301 -21.667 -13 -29s-19 -11 -31 -11c-19.333 0 -33.5 8.5 -42.5 25.5s-13.5 36.167 -13.5 57.5c0 23.333 4.16699 43.166 12.5 59.499s22.833 24.5 43.5 24.5
c12 0 22.333 -3.66699 31 -11s13 -16.666 13 -27.999z" />
    <glyph glyph-name="d" unicode="d" 
d="M240 799h48v-750h-48v750zM48 50h-8v750h8v-750zM8 50h-8v750h8v-750zM208 48h-8v750h8v-750zM80 800h48v-750h-48v750zM95 -198v163h15c24 0 44.167 -8.16699 60.5 -24.5s24.5 -36.5 24.5 -60.5s-7.66699 -43 -23 -57s-35 -21 -59 -21h-18zM119 -58l-0.000976562 -117
c16 0 28.5 5.16699 37.5 15.5s13.5 23.5 13.5 39.5s-4.66699 30.333 -14 43s-21.666 19 -36.999 19z" />
    <glyph glyph-name="e" unicode="e" 
d="M0 800h48v-750h-48v750zM88 50h-8v750h8v-750zM248 50h-8v750h8v-750zM288 50h-8v750h8v-750zM120 800h48v-750h-48v750zM118 -58v-44h63v-22h-63v-51h75v-23h-100v163h98v-23h-73z" />
    <glyph glyph-name="f" unicode="f" 
d="M40 800h48v-750h-48v750zM8 50h-8v750h8v-750zM248 50h-8v750h8v-750zM288 50h-8v750h8v-750zM120 800h48v-750h-48v750zM126 -58v-44h49v-22h-49v-74h-25v163h85v-23h-60z" />
    <glyph glyph-name="g" unicode="g" 
d="M240 799h48v-750h-48v750zM48 50h-8v750h8v-750zM8 50h-8v750h8v-750zM88 48h-8v750h8v-750zM160 800h48v-750h-48v750zM175 -131h-33.001v22h58v-79c-15.333 -6.66699 -31 -10 -47 -10c-22.667 0 -38.834 7.83301 -48.501 23.5s-14.5 35.834 -14.5 60.501
c0 25.333 4.83301 45.5 14.5 60.5s26.834 22.5 51.501 22.5c12 0 22.333 -3.33301 31 -10s13 -14.334 13 -23.001l-25 -2c-1.33301 8 -7.66602 12 -18.999 12c-16 0 -26.833 -5.33301 -32.5 -16s-8.5 -24.667 -8.5 -42c0 -19.333 2.5 -34.833 7.5 -46.5
s15.833 -17.5 32.5 -17.5c3.33301 0 7 0.5 11 1.5s7 1.83301 9 2.5v41z" />
    <glyph glyph-name="h" unicode="h" 
d="M0 800h48v-750h-48v750zM88 50h-8v750h8v-750zM128 50h-8v750h8v-750zM288 50h-8v750h8v-750zM200 800h48v-750h-48v750zM173 -125h-55v-73h-24v163h24v-67h55v67h24v-163h-24v73z" />
    <glyph glyph-name="i" unicode="i" 
d="M40 800h48v-750h-48v750zM8 50h-8v750h8v-750zM128 50h-8v750h8v-750zM288 50h-8v750h8v-750zM200 800h48v-750h-48v750zM156 -58v-117h29v-23h-83v23h29v117h-25v23h74v-23h-24z" />
    <glyph glyph-name="j" unicode="j" 
d="M200 800h48v-750h-48v750zM48 50h-8v750h8v-750zM8 50h-8v750h8v-750zM288 50h-8v750h8v-750zM80 800h48v-750h-48v750zM161 -33h25v-118c0 -31.333 -14 -47 -42 -47s-42 13.667 -42 41v14h25v-15c0 -12 5.66699 -18 17 -18c8 0 12.833 2.5 14.5 7.5s2.5 12.167 2.5 21.5
v114z" />
    <glyph glyph-name="k" unicode="k" 
d="M0 800h48v-750h-48v750zM88 50h-8v750h8v-750zM128 50h-8v750h8v-750zM168 50h-8v750h8v-750zM240 800h48v-750h-48v750zM116 -102l66 67h32l-79 -78l84 -85h-34l-69 73v-73h-25v163h25v-67z" />
    <glyph glyph-name="l" unicode="l" 
d="M40 800h48v-750h-48v750zM8 50h-8v750h8v-750zM128 50h-8v750h8v-750zM168 50h-8v750h8v-750zM240 800h48v-750h-48v750zM122 -175h84v-23h-108v163h24v-140z" />
    <glyph glyph-name="m" unicode="m" 
d="M80 800h48v-750h-48v750zM288 50h-8v750h8v-750zM168 50h-8v750h8v-750zM208 50h-8v750h8v-750zM0 800h48v-750h-48v750zM164 -35h38v-163h-25v136l-23 -83h-19l-23 83v-136h-25v163h38l19 -63z" />
    <glyph glyph-name="n" unicode="n" 
d="M240 799h48v-750h-48v750zM48 50h-8v750h8v-750zM8 50h-8v750h8v-750zM168 48h-8v750h8v-750zM80 800h48v-750h-48v750zM177 -35h22v-163h-26l-59 123v-123h-23v163h29l56 -118z" />
    <glyph glyph-name="o" unicode="o" 
d="M0 800h48v-750h-48v750zM88 50h-8v750h8v-750zM208 50h-8v750h8v-750zM288 50h-8v750h8v-750zM120 800h48v-750h-48v750zM144 -31c19.333 0 34.333 -9.66797 45 -29.001c8.66699 -15.333 13 -33.333 13 -54c0 -21.333 -4.33301 -39.666 -13 -54.999
c-10.667 -19.333 -25.667 -29 -45 -29c-18.667 0 -32.834 8.5 -42.501 25.5s-14.5 36.5 -14.5 58.5c0 19.333 4.83301 38 14.5 56s23.834 27 42.501 27zM144 -54.001c-9.33301 0 -17.001 -5.00195 -23.001 -15.002s-9 -25.667 -9 -47c0 -15.333 2.16699 -29.166 6.5 -41.499
s12.833 -18.5 25.5 -18.5c12 0 21 7.33301 27 22c4 10.667 6 23.334 6 38.001c0 16.667 -1.66699 29.667 -5 39c-5.33301 15.333 -14.666 23 -27.999 23z" />
    <glyph glyph-name="p" unicode="p" 
d="M40 800h48v-750h-48v750zM8 50h-8v750h8v-750zM208 50h-8v750h8v-750zM288 50h-8v750h8v-750zM120 800h48v-750h-48v750zM90 -198l0.000976562 163h55c17.333 0 31 -4 41 -12s15 -20.333 15 -37c0 -16 -5.33301 -27.833 -16 -35.5s-24.334 -11.5 -41.001 -11.5h-29v-67
h-25zM115.001 -108h29c9.33301 0 17 1.83301 23 5.5s9 10.167 9 19.5s-2.83301 15.833 -8.5 19.5s-13.5 5.5 -23.5 5.5h-29v-50z" />
    <glyph glyph-name="q" unicode="q" 
d="M240 799h48v-750h-48v750zM48 50h-8v750h8v-750zM8 50h-8v750h8v-750zM88 48h-8v750h8v-750zM120 800h48v-750h-48v750zM187 -198l-13.999 17.999c-8.66699 -6.66699 -18.334 -10 -29.001 -10c-18.667 0 -32.5 7.66699 -41.5 23s-13.5 33.333 -13.5 54
c0 21.333 4.16699 40 12.5 56s22.5 24 42.5 24c19.333 0 33.333 -8.33301 42 -25s13 -35 13 -55c0 -12.667 -0.5 -22.167 -1.5 -28.5s-4.16699 -13.166 -9.5 -20.499l29 -36h-30zM159.001 -162.001l-32.999 43h29l17 -21c1.33301 6 2 16 2 30
c0 15.333 -1.33301 26.666 -4 33.999c-4.66699 13.333 -13.334 20 -26.001 20c-9.33301 0 -16.666 -4.16699 -21.999 -12.5s-8 -22.166 -8 -41.499c0 -14 2.16699 -27 6.5 -39s12.166 -18 23.499 -18c6.66699 0 11.667 1.66699 15 5z" />
    <glyph glyph-name="r" unicode="r" 
d="M0 800h48v-750h-48v750zM88 50h-8v750h8v-750zM128 50h-8v750h8v-750zM288 50h-8v750h8v-750zM160 800h48v-750h-48v750zM118 -131v-67h-24v163h47c35.333 0 53 -16 53 -48c0 -24.667 -11 -39 -33 -43l43 -72h-29l-37 67h-20zM118 -108h18.999c21.333 0 32 8.66699 32 26
c0 10 -2.66699 16.5 -8 19.5s-13.666 4.5 -24.999 4.5h-18v-50z" />
    <glyph glyph-name="s" unicode="s" 
d="M40 800h48v-750h-48v750zM8 50h-8v750h8v-750zM128 50h-8v750h8v-750zM288 50h-8v750h8v-750zM160 800h48v-750h-48v750zM144 -198c-12.667 0 -24.334 3.83105 -35.001 11.498s-16 17.834 -16 30.501v5h25c0 -16.667 8.66699 -25 26 -25c18 0 27 7.66699 27 23
c0 8 -3 14.167 -9 18.5s-15.167 9.33301 -27.5 15s-20.833 10.834 -25.5 15.501c-8 8 -12 17.333 -12 28c0 13.333 4.83301 24.166 14.5 32.499s21.5 12.5 35.5 12.5c12 0 22.833 -3.83301 32.5 -11.5s14.5 -17.167 14.5 -28.5l-25 -3c0 13.333 -7.33301 20 -22 20
c-7.33301 0 -13.333 -1.5 -18 -4.5s-7 -8.16699 -7 -15.5c0 -6 1.5 -10.5 4.5 -13.5s7.5 -5.83301 13.5 -8.5l15 -7c14.667 -7.33301 24.334 -13.333 29.001 -18c8 -8 12 -18.667 12 -32s-5.16699 -24.166 -15.5 -32.499s-22.5 -12.5 -36.5 -12.5z" />
    <glyph glyph-name="t" unicode="t" 
d="M160 800h48v-750h-48v750zM48 50h-8v750h8v-750zM8 50h-8v750h8v-750zM288 50h-8v750h8v-750zM80 800h48v-750h-48v750zM157 -58v-140h-25v140h-44v23h113v-23h-44z" />
    <glyph glyph-name="u" unicode="u" 
d="M0 800h48v-750h-48v750zM128 50h-8v750h8v-750zM168 50h-8v750h8v-750zM208 50h-8v750h8v-750zM240 800h48v-750h-48v750zM89 -33l25 -0.000976562v-107c0 -24 10 -36 30 -36c12 0 20.167 2.83301 24.5 8.5s6.5 14.834 6.5 27.501v107h24v-109
c0 -37.333 -18.333 -56 -55 -56s-55 18.667 -55 56v109z" />
    <glyph glyph-name="v" unicode="v" 
d="M80 800h48v-750h-48v750zM8 50h-8v750h8v-750zM168 50h-8v750h8v-750zM208 50h-8v750h8v-750zM240 800h48v-750h-48v750zM181 -35h25l-45 -163h-34l-44 163h25l36 -139z" />
    <glyph glyph-name="w" unicode="w" 
d="M120 800h48v-750h-48v750zM288 50h-8v750h8v-750zM208 50h-8v750h8v-750zM248 50h-8v750h8v-750zM0 800h48v-750h-48v750zM135 -98h19l16 -58c5.33301 39.333 8 75 8 107v14h25v-14c0 -13.333 -0.333008 -26.666 -1 -39.999s-2 -26 -4 -38l-13 -71h-26l-14 57l-15 -57
h-27l-12 71c-1.33301 10 -2.5 21.667 -3.5 35s-1.5 27.666 -1.5 42.999v14h24v-14c0 -32 2.66699 -67.667 8 -107z" />
    <glyph glyph-name="x" unicode="x" 
d="M240 799h48v-750h-48v750zM88 50h-8v750h8v-750zM8 50h-8v750h8v-750zM208 48h-8v750h8v-750zM120 800h48v-750h-48v750zM145 -92l30 57h29l-43 -79l43 -84h-29l-30 62l-30 -62h-28l45 84l-45 79h28z" />
    <glyph glyph-name="y" unicode="y" 
d="M0 800h48v-750h-48v750zM128 50h-8v750h8v-750zM248 50h-8v750h8v-750zM288 50h-8v750h8v-750zM160 800h48v-750h-48v750zM144 -96l32 61h27l-46 -87v-76h-25v76l-46 87h27z" />
    <glyph glyph-name="z" unicode="z" 
d="M80 800h48v-750h-48v750zM8 50h-8v750h8v-750zM248 50h-8v750h8v-750zM288 50h-8v750h8v-750zM160 800h48v-750h-48v750zM126 -175h69v-23h-98v17l64 123h-62v23h88v-19z" />
    <glyph glyph-name="nonbreakingspace" unicode="&#xa0;" horiz-adv-x="500" 
 />
    <glyph glyph-name=".null" horiz-adv-x="0" 
 />
    <glyph glyph-name="nonmarkingreturn" 
 />
  </font>
</defs>
</svg>
